<svg width="1947" height="456" viewBox="0 0 1947 456" fill="none" xmlns="http://www.w3.org/2000/svg">
<path d="M624.73 340.61H531.81V125.14H620.73C665.8 125.14 690.8 148.59 690.8 180.7C690.8 206.95 675.05 223.31 654.06 230.1C678.45 234.42 695.75 256.96 695.75 282.27C695.75 316.53 669.5 340.61 624.73 340.61ZM614.54 160.03H575.04V214.06H614.54C634.93 214.06 646.65 204.78 646.65 187.2C646.65 169.9 634.93 160.03 614.54 160.03ZM617.63 247.39H575.04V305.43H618.56C639.56 305.43 651.91 295.25 651.91 277.03C651.91 258.51 638.63 247.39 617.63 247.39Z" fill="white"/>
<path d="M806.25 343.39C756.85 343.39 719.51 308.82 719.51 255.11C719.51 201.07 758.1 166.81 807.48 166.81C856.87 166.81 895.47 201.07 895.47 255.11C895.47 308.82 855.95 343.39 806.25 343.39ZM806.25 305.74C829.1 305.74 851.01 289.07 851.01 255.11C851.01 220.84 829.71 204.49 806.88 204.49C784.03 204.49 763.34 220.84 763.34 255.11C763.33 289.07 783.1 305.74 806.25 305.74Z" fill="white"/>
<path d="M994.23 166.82C1021.71 166.82 1040.55 179.77 1050.73 193.99V169.59H1094.26V340.61H1050.73V315.62C1040.55 330.43 1021.09 343.4 993.93 343.4C950.71 343.4 916.13 307.91 916.13 254.5C916.13 201.08 950.71 166.82 994.23 166.82ZM1005.35 204.78C982.2 204.78 960.27 222.07 960.27 254.49C960.27 286.91 982.2 305.42 1005.35 305.42C1029.11 305.42 1050.73 287.53 1050.73 255.1C1050.73 222.68 1029.11 204.78 1005.35 204.78Z" fill="white"/>
<path d="M1179.75 340.61H1136.54V169.59H1179.75V196.13C1190.57 178.54 1208.47 167.12 1232.24 167.12V212.5H1220.82C1195.2 212.5 1179.76 222.38 1179.76 255.4V340.61H1179.75Z" fill="white"/>
<path d="M1328.54 166.82C1351.09 166.82 1372.69 177.32 1384.43 193.36V112.17H1428.27V340.61H1384.43V315.31C1374.25 331.06 1355.09 343.4 1328.23 343.4C1284.71 343.4 1250.13 307.91 1250.13 254.5C1250.13 201.08 1284.71 166.82 1328.54 166.82ZM1339.35 204.78C1316.2 204.78 1294.27 222.07 1294.27 254.49C1294.27 286.91 1316.2 305.42 1339.35 305.42C1363.11 305.42 1384.72 287.53 1384.72 255.1C1384.72 222.68 1363.12 204.78 1339.35 204.78Z" fill="white"/>
<path d="M1642.8 122.36C1690.65 122.36 1729.54 147.97 1744.05 192.13H1694.35C1684.16 171.44 1665.64 161.26 1642.49 161.26C1604.83 161.26 1577.96 188.73 1577.96 232.58C1577.96 276.1 1604.83 303.89 1642.49 303.89C1665.65 303.89 1684.16 293.71 1694.35 272.71H1744.05C1729.54 317.17 1690.65 342.48 1642.8 342.48C1580.75 342.48 1533.5 297.09 1533.5 232.58C1533.5 168.04 1580.75 122.36 1642.8 122.36Z" fill="white"/>
<path d="M1857.03 343.39C1807.63 343.39 1770.28 308.82 1770.28 255.11C1770.28 201.07 1808.87 166.81 1858.26 166.81C1907.65 166.81 1946.25 201.07 1946.25 255.11C1946.25 308.82 1906.74 343.39 1857.03 343.39ZM1857.03 305.74C1879.88 305.74 1901.78 289.07 1901.78 255.11C1901.78 220.84 1880.49 204.49 1857.66 204.49C1834.8 204.49 1814.11 220.84 1814.11 255.11C1814.1 289.07 1833.87 305.74 1857.03 305.74Z" fill="white"/>
<path d="M357.24 327.5C357.24 341.04 346.26 352.02 332.72 352.02H109.19C74.82 347.37 44.82 328.87 25.01 302.34C13.61 287.07 5.58001 269.11 2.04001 249.6C0.690009 242.22 0 234.63 0 226.87C0 217.62 0.979995 208.6 2.87 199.92C6.88 181.55 14.85 164.67 25.88 150.25C25.89 150.23 25.91 150.22 25.92 150.2C26.06 150.02 26.18 149.84 26.34 149.66C33.07 140.94 40.92 133.14 49.67 126.46C65.07 114.68 83.26 106.38 103.07 102.69C110.6 101.29 118.37 100.56 126.3 100.56H231.42C244.96 100.56 255.94 111.54 255.94 125.08V125.73C255.94 139.27 244.96 150.25 231.42 150.25H127.84C127.34 150.24 126.82 150.24 126.31 150.24C125.84 150.24 125.35 150.24 124.88 150.25C117.75 150.38 110.86 151.49 104.31 153.45H104.3C87.45 158.48 73.02 169.19 63.24 183.33C59.71 188.45 56.77 194 54.56 199.92C51.39 208.3 49.68 217.39 49.68 226.87C49.68 234.79 50.88 242.41 53.11 249.6C61.51 276.72 84.59 297.38 113.06 302.34C117.36 303.1 121.79 303.49 126.31 303.49C128.42 303.49 227.33 303.24 332.66 302.97C346.22 302.95 357.24 313.94 357.24 327.5Z" fill="white"/>
<path d="M462.79 329.26C462.79 337.03 462.09 344.64 460.75 352.02C457.11 372 448.77 390.35 436.91 405.87C413.82 436.07 377.44 455.56 336.49 455.56H0V405.87H336.47C371.15 405.87 400.54 383.28 410.76 352.02C413.27 344.38 414.61 336.21 414.61 327.74C414.61 318.83 413.13 310.3 410.38 302.34C399.85 271.65 370.73 249.6 336.47 249.6H135.8C128.91 249.6 122.67 246.81 118.15 242.28C113.54 237.66 110.71 231.24 110.85 224.17C111.1 210.47 122.68 199.69 136.37 199.69H241.33C263.5 199.69 284.63 189.48 297.75 171.59C298.17 171.01 298.58 170.44 298.99 169.84C303.24 163.7 306.61 156.91 308.94 149.63C311.29 142.27 312.57 134.43 312.57 126.3C312.57 117.05 310.92 108.16 307.92 99.94C297.16 70.61 268.99 49.67 235.93 49.67H110.83V0H235.92C276.87 0 313.27 19.48 336.34 49.68C347.49 64.27 355.53 81.34 359.47 99.95C361.28 108.46 362.22 117.27 362.22 126.31C362.22 134.28 361.48 142.08 360.07 149.64C356.62 168.13 349.13 185.21 338.58 199.92C337.84 200.94 337.1 201.93 336.34 202.94H336.47C376.03 202.94 411.34 221.13 434.51 249.6C446.79 264.69 455.64 282.66 459.92 302.34C461.8 311.02 462.79 320.03 462.79 329.26Z" fill="white"/>
</svg>
