<svg width="709" height="205" viewBox="0 0 709 205" fill="none" xmlns="http://www.w3.org/2000/svg">
<path d="M72.5 0C112.541 0 145 32.5467 145 72.695C145 112.843 112.541 145.39 72.5 145.39H46.4V205H0V139.935L59.1385 104.313L66.2582 116.196C67.6952 118.595 71.183 118.534 72.5361 116.087L104.303 58.6345C105.656 56.1874 103.86 53.1892 101.07 53.2378L35.5639 54.3786C32.7739 54.4272 31.0827 57.4862 32.5195 59.8847L40.1037 72.5431L0 96.7V0H72.5Z" fill="white"/>
<path d="M180.522 128V41.4545H214.667C221.231 41.4545 226.823 42.7082 231.444 45.2156C236.064 47.6947 239.585 51.1458 242.008 55.5689C244.459 59.9638 245.685 65.0348 245.685 70.782C245.685 76.5291 244.445 81.6001 241.966 85.995C239.487 90.3899 235.895 93.8129 231.19 96.2638C226.513 98.7148 220.851 99.9403 214.202 99.9403H192.439V85.2766H211.244C214.766 85.2766 217.667 84.6709 219.949 83.4595C222.259 82.2199 223.978 80.5155 225.105 78.3462C226.26 76.1488 226.837 73.6274 226.837 70.782C226.837 67.9084 226.26 65.401 225.105 63.2599C223.978 61.0907 222.259 59.4144 219.949 58.2312C217.639 57.0198 214.709 56.4141 211.159 56.4141H198.82V128H180.522ZM285.513 129.268C278.949 129.268 273.272 127.873 268.483 125.084C263.722 122.267 260.046 118.351 257.454 113.336C254.862 108.293 253.566 102.448 253.566 95.799C253.566 89.094 254.862 83.2341 257.454 78.2195C260.046 73.1766 263.722 69.2607 268.483 66.4716C273.272 63.6544 278.949 62.2457 285.513 62.2457C292.077 62.2457 297.74 63.6544 302.501 66.4716C307.291 69.2607 310.981 73.1766 313.573 78.2195C316.165 83.2341 317.461 89.094 317.461 95.799C317.461 102.448 316.165 108.293 313.573 113.336C310.981 118.351 307.291 122.267 302.501 125.084C297.74 127.873 292.077 129.268 285.513 129.268ZM285.598 115.322C288.584 115.322 291.077 114.477 293.078 112.787C295.078 111.068 296.585 108.73 297.599 105.772C298.642 102.814 299.163 99.4473 299.163 95.6722C299.163 91.8971 298.642 88.5305 297.599 85.5724C296.585 82.6143 295.078 80.276 293.078 78.5575C291.077 76.839 288.584 75.9798 285.598 75.9798C282.583 75.9798 280.048 76.839 277.991 78.5575C275.963 80.276 274.427 82.6143 273.385 85.5724C272.371 88.5305 271.864 91.8971 271.864 95.6722C271.864 99.4473 272.371 102.814 273.385 105.772C274.427 108.73 275.963 111.068 277.991 112.787C280.048 114.477 282.583 115.322 285.598 115.322ZM347.169 41.4545V128H329.166V41.4545H347.169ZM379.591 41.4545V128H361.589V41.4545H379.591ZM448.018 81.6001L431.538 82.6143C431.256 81.2057 430.65 79.938 429.721 78.8111C428.791 77.656 427.565 76.7404 426.044 76.0643C424.551 75.36 422.762 75.0078 420.677 75.0078C417.888 75.0078 415.536 75.5994 413.62 76.7827C411.704 77.9377 410.746 79.4872 410.746 81.4311C410.746 82.9806 411.366 84.2906 412.606 85.3612C413.845 86.4317 415.972 87.291 418.987 87.9389L430.735 90.3054C437.045 91.6013 441.75 93.6861 444.849 96.5597C447.948 99.4332 449.498 103.208 449.498 107.885C449.498 112.139 448.244 115.872 445.737 119.083C443.257 122.295 439.848 124.802 435.51 126.605C431.2 128.38 426.227 129.268 420.593 129.268C412 129.268 405.154 127.479 400.055 123.901C394.984 120.295 392.012 115.393 391.138 109.195L408.845 108.265C409.38 110.885 410.676 112.886 412.733 114.266C414.789 115.618 417.423 116.294 420.635 116.294C423.79 116.294 426.326 115.689 428.241 114.477C430.185 113.238 431.171 111.646 431.2 109.702C431.171 108.068 430.481 106.73 429.129 105.688C427.777 104.617 425.692 103.8 422.875 103.237L411.634 100.997C405.295 99.729 400.576 97.5316 397.477 94.4045C394.406 91.2773 392.871 87.291 392.871 82.4453C392.871 78.2758 393.998 74.6838 396.252 71.6694C398.534 68.6549 401.731 66.3307 405.844 64.6967C409.986 63.0627 414.831 62.2457 420.381 62.2457C428.58 62.2457 435.031 63.9783 439.736 67.4435C444.469 70.9087 447.23 75.6276 448.018 81.6001ZM495.359 63.0909V76.6136H456.269V63.0909H495.359ZM465.144 47.5398H483.146V108.054C483.146 109.716 483.399 111.012 483.907 111.942C484.414 112.843 485.118 113.477 486.019 113.843C486.949 114.21 488.02 114.393 489.231 114.393C490.076 114.393 490.921 114.322 491.767 114.181C492.612 114.012 493.26 113.886 493.71 113.801L496.542 127.197C495.64 127.479 494.373 127.803 492.739 128.169C491.105 128.563 489.118 128.803 486.78 128.887C482.442 129.056 478.638 128.479 475.37 127.155C472.13 125.831 469.609 123.774 467.806 120.985C466.003 118.196 465.116 114.674 465.144 110.42V47.5398ZM525.595 129.225C521.453 129.225 517.763 128.507 514.523 127.07C511.283 125.605 508.719 123.45 506.832 120.605C504.972 117.731 504.043 114.153 504.043 109.871C504.043 106.265 504.705 103.237 506.029 100.786C507.353 98.3345 509.156 96.3625 511.438 94.8693C513.72 93.3762 516.312 92.2493 519.214 91.4886C522.143 90.728 525.214 90.1927 528.426 89.8828C532.201 89.4884 535.244 89.1222 537.554 88.7841C539.864 88.4178 541.54 87.8826 542.582 87.1783C543.625 86.474 544.146 85.4316 544.146 84.0511V83.7976C544.146 81.1212 543.301 79.0505 541.611 77.5856C539.948 76.1206 537.582 75.3881 534.511 75.3881C531.271 75.3881 528.694 76.1065 526.778 77.5433C524.862 78.9519 523.594 80.7268 522.975 82.8679L506.325 81.5156C507.17 77.5715 508.832 74.1626 511.311 71.2891C513.79 68.3873 516.988 66.1617 520.904 64.6122C524.848 63.0346 529.412 62.2457 534.596 62.2457C538.202 62.2457 541.653 62.6683 544.949 63.5135C548.273 64.3587 551.217 65.6687 553.781 67.4435C556.373 69.2184 558.415 71.5004 559.908 74.2894C561.402 77.0503 562.148 80.3606 562.148 84.2202V128H545.076V118.999H544.569C543.526 121.027 542.132 122.816 540.385 124.366C538.638 125.887 536.54 127.084 534.089 127.958C531.638 128.803 528.806 129.225 525.595 129.225ZM530.75 116.801C533.398 116.801 535.737 116.28 537.765 115.238C539.793 114.167 541.385 112.731 542.54 110.928C543.695 109.125 544.273 107.082 544.273 104.8V97.9119C543.709 98.2782 542.935 98.6162 541.949 98.9261C540.991 99.2079 539.906 99.4755 538.695 99.729C537.483 99.9544 536.272 100.166 535.06 100.363C533.849 100.532 532.75 100.687 531.764 100.828C529.651 101.138 527.806 101.631 526.228 102.307C524.651 102.983 523.425 103.899 522.552 105.054C521.679 106.181 521.242 107.589 521.242 109.279C521.242 111.73 522.129 113.604 523.904 114.9C525.707 116.168 527.989 116.801 530.75 116.801ZM605.442 129.268C598.793 129.268 593.074 127.859 588.285 125.042C583.524 122.196 579.862 118.252 577.298 113.21C574.762 108.167 573.495 102.363 573.495 95.799C573.495 89.1503 574.776 83.3187 577.34 78.304C579.932 73.2611 583.608 69.3311 588.37 66.5138C593.131 63.6684 598.793 62.2457 605.358 62.2457C611.02 62.2457 615.978 63.274 620.233 65.3306C624.487 67.3872 627.853 70.2749 630.332 73.9936C632.811 77.7124 634.178 82.0791 634.431 87.0938H617.443C616.965 83.8539 615.697 81.248 613.64 79.2759C611.612 77.2757 608.949 76.2756 605.653 76.2756C602.864 76.2756 600.427 77.0362 598.343 78.5575C596.286 80.0507 594.68 82.234 593.525 85.1076C592.37 87.9812 591.793 91.4605 591.793 95.5455C591.793 99.6868 592.356 103.208 593.483 106.11C594.638 109.012 596.258 111.223 598.343 112.745C600.427 114.266 602.864 115.027 605.653 115.027C607.71 115.027 609.555 114.604 611.189 113.759C612.851 112.914 614.218 111.688 615.288 110.082C616.387 108.448 617.105 106.49 617.443 104.208H634.431C634.15 109.167 632.797 113.533 630.375 117.309C627.98 121.056 624.67 123.985 620.444 126.098C616.218 128.211 611.217 129.268 605.442 129.268ZM662.269 109.322L662.311 87.7276H664.931L685.723 63.0909H706.387L678.454 95.7145H674.186L662.269 109.322ZM645.957 128V41.4545H663.96V128H645.957ZM686.526 128L667.425 99.729L679.426 87.0092L707.613 128H686.526Z" fill="white"/>
<mask id="mask0_52_11" style="mask-type:alpha" maskUnits="userSpaceOnUse" x="180" y="41" width="528" height="89">
<path d="M180.522 128V41.4545H214.667C221.231 41.4545 226.823 42.7082 231.444 45.2156C236.064 47.6947 239.585 51.1458 242.008 55.5689C244.459 59.9638 245.685 65.0348 245.685 70.782C245.685 76.5291 244.445 81.6001 241.966 85.995C239.487 90.3899 235.895 93.8129 231.19 96.2638C226.513 98.7148 220.851 99.9403 214.202 99.9403H192.439V85.2766H211.244C214.766 85.2766 217.667 84.6709 219.949 83.4595C222.259 82.2199 223.978 80.5155 225.105 78.3462C226.26 76.1488 226.837 73.6274 226.837 70.782C226.837 67.9084 226.26 65.401 225.105 63.2599C223.978 61.0907 222.259 59.4144 219.949 58.2312C217.639 57.0198 214.709 56.4141 211.159 56.4141H198.82V128H180.522ZM285.513 129.268C278.949 129.268 273.272 127.873 268.483 125.084C263.722 122.267 260.046 118.351 257.454 113.336C254.862 108.293 253.566 102.448 253.566 95.799C253.566 89.094 254.862 83.2341 257.454 78.2195C260.046 73.1766 263.722 69.2607 268.483 66.4716C273.272 63.6544 278.949 62.2457 285.513 62.2457C292.077 62.2457 297.74 63.6544 302.501 66.4716C307.291 69.2607 310.981 73.1766 313.573 78.2195C316.165 83.2341 317.461 89.094 317.461 95.799C317.461 102.448 316.165 108.293 313.573 113.336C310.981 118.351 307.291 122.267 302.501 125.084C297.74 127.873 292.077 129.268 285.513 129.268ZM285.598 115.322C288.584 115.322 291.077 114.477 293.078 112.787C295.078 111.068 296.585 108.73 297.599 105.772C298.642 102.814 299.163 99.4473 299.163 95.6722C299.163 91.8971 298.642 88.5305 297.599 85.5724C296.585 82.6143 295.078 80.276 293.078 78.5575C291.077 76.839 288.584 75.9798 285.598 75.9798C282.583 75.9798 280.048 76.839 277.991 78.5575C275.963 80.276 274.427 82.6143 273.385 85.5724C272.371 88.5305 271.864 91.8971 271.864 95.6722C271.864 99.4473 272.371 102.814 273.385 105.772C274.427 108.73 275.963 111.068 277.991 112.787C280.048 114.477 282.583 115.322 285.598 115.322ZM347.169 41.4545V128H329.166V41.4545H347.169ZM379.591 41.4545V128H361.589V41.4545H379.591ZM448.018 81.6001L431.538 82.6143C431.256 81.2057 430.65 79.938 429.721 78.8111C428.791 77.656 427.565 76.7404 426.044 76.0643C424.551 75.36 422.762 75.0078 420.677 75.0078C417.888 75.0078 415.536 75.5994 413.62 76.7827C411.704 77.9377 410.746 79.4872 410.746 81.4311C410.746 82.9806 411.366 84.2906 412.606 85.3612C413.845 86.4317 415.972 87.291 418.987 87.9389L430.735 90.3054C437.045 91.6013 441.75 93.6861 444.849 96.5597C447.948 99.4332 449.498 103.208 449.498 107.885C449.498 112.139 448.244 115.872 445.737 119.083C443.257 122.295 439.848 124.802 435.51 126.605C431.2 128.38 426.227 129.268 420.593 129.268C412 129.268 405.154 127.479 400.055 123.901C394.984 120.295 392.012 115.393 391.138 109.195L408.845 108.265C409.38 110.885 410.676 112.886 412.733 114.266C414.789 115.618 417.423 116.294 420.635 116.294C423.79 116.294 426.326 115.689 428.241 114.477C430.185 113.238 431.171 111.646 431.2 109.702C431.171 108.068 430.481 106.73 429.129 105.688C427.777 104.617 425.692 103.8 422.875 103.237L411.634 100.997C405.295 99.729 400.576 97.5316 397.477 94.4045C394.406 91.2773 392.871 87.291 392.871 82.4453C392.871 78.2758 393.998 74.6838 396.252 71.6694C398.534 68.6549 401.731 66.3307 405.844 64.6967C409.986 63.0627 414.831 62.2457 420.381 62.2457C428.58 62.2457 435.031 63.9783 439.736 67.4435C444.469 70.9087 447.23 75.6276 448.018 81.6001ZM495.359 63.0909V76.6136H456.269V63.0909H495.359ZM465.144 47.5398H483.146V108.054C483.146 109.716 483.399 111.012 483.907 111.942C484.414 112.843 485.118 113.477 486.019 113.843C486.949 114.21 488.02 114.393 489.231 114.393C490.076 114.393 490.921 114.322 491.767 114.181C492.612 114.012 493.26 113.886 493.71 113.801L496.542 127.197C495.64 127.479 494.373 127.803 492.739 128.169C491.105 128.563 489.118 128.803 486.78 128.887C482.442 129.056 478.638 128.479 475.37 127.155C472.13 125.831 469.609 123.774 467.806 120.985C466.003 118.196 465.116 114.674 465.144 110.42V47.5398ZM525.595 129.225C521.453 129.225 517.763 128.507 514.523 127.07C511.283 125.605 508.719 123.45 506.832 120.605C504.972 117.731 504.043 114.153 504.043 109.871C504.043 106.265 504.705 103.237 506.029 100.786C507.353 98.3345 509.156 96.3625 511.438 94.8693C513.72 93.3762 516.312 92.2493 519.214 91.4886C522.143 90.728 525.214 90.1927 528.426 89.8828C532.201 89.4884 535.244 89.1222 537.554 88.7841C539.864 88.4178 541.54 87.8826 542.582 87.1783C543.625 86.474 544.146 85.4316 544.146 84.0511V83.7976C544.146 81.1212 543.301 79.0505 541.611 77.5856C539.948 76.1206 537.582 75.3881 534.511 75.3881C531.271 75.3881 528.694 76.1065 526.778 77.5433C524.862 78.9519 523.594 80.7268 522.975 82.8679L506.325 81.5156C507.17 77.5715 508.832 74.1626 511.311 71.2891C513.79 68.3873 516.988 66.1617 520.904 64.6122C524.848 63.0346 529.412 62.2457 534.596 62.2457C538.202 62.2457 541.653 62.6683 544.949 63.5135C548.273 64.3587 551.217 65.6687 553.781 67.4435C556.373 69.2184 558.415 71.5004 559.908 74.2894C561.402 77.0503 562.148 80.3606 562.148 84.2202V128H545.076V118.999H544.569C543.526 121.027 542.132 122.816 540.385 124.366C538.638 125.887 536.54 127.084 534.089 127.958C531.638 128.803 528.806 129.225 525.595 129.225ZM530.75 116.801C533.398 116.801 535.737 116.28 537.765 115.238C539.793 114.167 541.385 112.731 542.54 110.928C543.695 109.125 544.273 107.082 544.273 104.8V97.9119C543.709 98.2782 542.935 98.6162 541.949 98.9261C540.991 99.2079 539.906 99.4755 538.695 99.729C537.483 99.9544 536.272 100.166 535.06 100.363C533.849 100.532 532.75 100.687 531.764 100.828C529.651 101.138 527.806 101.631 526.228 102.307C524.651 102.983 523.425 103.899 522.552 105.054C521.679 106.181 521.242 107.589 521.242 109.279C521.242 111.73 522.129 113.604 523.904 114.9C525.707 116.168 527.989 116.801 530.75 116.801ZM605.442 129.268C598.793 129.268 593.074 127.859 588.285 125.042C583.524 122.196 579.862 118.252 577.298 113.21C574.762 108.167 573.495 102.363 573.495 95.799C573.495 89.1503 574.776 83.3187 577.34 78.304C579.932 73.2611 583.608 69.3311 588.37 66.5138C593.131 63.6684 598.793 62.2457 605.358 62.2457C611.02 62.2457 615.978 63.274 620.233 65.3306C624.487 67.3872 627.853 70.2749 630.332 73.9936C632.811 77.7124 634.178 82.0791 634.431 87.0938H617.443C616.965 83.8539 615.697 81.248 613.64 79.2759C611.612 77.2757 608.949 76.2756 605.653 76.2756C602.864 76.2756 600.427 77.0362 598.343 78.5575C596.286 80.0507 594.68 82.234 593.525 85.1076C592.37 87.9812 591.793 91.4605 591.793 95.5455C591.793 99.6868 592.356 103.208 593.483 106.11C594.638 109.012 596.258 111.223 598.343 112.745C600.427 114.266 602.864 115.027 605.653 115.027C607.71 115.027 609.555 114.604 611.189 113.759C612.851 112.914 614.218 111.688 615.288 110.082C616.387 108.448 617.105 106.49 617.443 104.208H634.431C634.15 109.167 632.797 113.533 630.375 117.309C627.98 121.056 624.67 123.985 620.444 126.098C616.218 128.211 611.217 129.268 605.442 129.268ZM662.269 109.322L662.311 87.7276H664.931L685.723 63.0909H706.387L678.454 95.7145H674.186L662.269 109.322ZM645.957 128V41.4545H663.96V128H645.957ZM686.526 128L667.425 99.729L679.426 87.0092L707.613 128H686.526Z" fill="url(#paint0_linear_52_11)"/>
</mask>
<g mask="url(#mask0_52_11)">
<path d="M238 62.5C98.8692 53.0902 182.833 94.8332 187.5 186C233.667 216.667 347.8 292.3 435 349.5C544 421 494.197 121.94 680.5 62.5001C785.5 29 763 -77.5 610.5 -70.5C458 -63.5 617.5 0.500076 481.5 104.5C345.5 208.5 445 76.5 238 62.5Z" fill="white"/>
</g>
<path d="M175.554 185V163.909H188.283V166.175H178.108V173.301H187.624V175.567H178.108V182.734H188.447V185H175.554ZM192.556 185V169.182H194.904V171.653H195.11C195.44 170.809 195.972 170.153 196.707 169.686C197.441 169.213 198.324 168.976 199.353 168.976C200.397 168.976 201.265 169.213 201.959 169.686C202.659 170.153 203.205 170.809 203.596 171.653H203.761C204.166 170.836 204.774 170.188 205.584 169.707C206.394 169.22 207.365 168.976 208.498 168.976C209.913 168.976 211.069 169.419 211.969 170.304C212.868 171.183 213.318 172.553 213.318 174.413V185H210.887V174.413C210.887 173.246 210.568 172.412 209.93 171.911C209.291 171.41 208.539 171.159 207.674 171.159C206.562 171.159 205.701 171.496 205.089 172.168C204.478 172.834 204.173 173.679 204.173 174.702V185H201.701V174.166C201.701 173.267 201.41 172.542 200.826 171.993C200.242 171.437 199.491 171.159 198.571 171.159C197.939 171.159 197.349 171.327 196.799 171.664C196.257 172 195.818 172.467 195.481 173.064C195.152 173.655 194.987 174.338 194.987 175.114V185H192.556ZM217.762 190.932V169.182H220.11V171.695H220.398C220.576 171.42 220.824 171.07 221.139 170.644C221.462 170.212 221.922 169.827 222.519 169.491C223.124 169.147 223.941 168.976 224.97 168.976C226.302 168.976 227.476 169.309 228.492 169.975C229.508 170.641 230.301 171.585 230.871 172.807C231.441 174.029 231.726 175.471 231.726 177.132C231.726 178.807 231.441 180.259 230.871 181.488C230.301 182.71 229.512 183.658 228.503 184.331C227.493 184.997 226.33 185.33 225.012 185.33C223.995 185.33 223.182 185.161 222.571 184.825C221.96 184.482 221.49 184.094 221.16 183.661C220.83 183.222 220.576 182.858 220.398 182.57H220.192V190.932H217.762ZM220.151 177.091C220.151 178.286 220.326 179.339 220.676 180.252C221.026 181.159 221.538 181.869 222.21 182.384C222.883 182.892 223.707 183.146 224.682 183.146C225.698 183.146 226.546 182.879 227.226 182.343C227.912 181.801 228.427 181.073 228.77 180.16C229.121 179.24 229.296 178.217 229.296 177.091C229.296 175.979 229.124 174.976 228.781 174.084C228.444 173.184 227.933 172.474 227.246 171.952C226.567 171.423 225.712 171.159 224.682 171.159C223.693 171.159 222.863 171.41 222.19 171.911C221.517 172.405 221.009 173.099 220.666 173.991C220.322 174.877 220.151 175.91 220.151 177.091ZM241.86 185.33C240.432 185.33 239.179 184.99 238.101 184.31C237.03 183.63 236.192 182.679 235.588 181.457C234.991 180.235 234.692 178.807 234.692 177.173C234.692 175.526 234.991 174.087 235.588 172.858C236.192 171.629 237.03 170.675 238.101 169.995C239.179 169.316 240.432 168.976 241.86 168.976C243.288 168.976 244.537 169.316 245.608 169.995C246.686 170.675 247.524 171.629 248.121 172.858C248.725 174.087 249.027 175.526 249.027 177.173C249.027 178.807 248.725 180.235 248.121 181.457C247.524 182.679 246.686 183.63 245.608 184.31C244.537 184.99 243.288 185.33 241.86 185.33ZM241.86 183.146C242.944 183.146 243.837 182.868 244.537 182.312C245.237 181.756 245.756 181.025 246.092 180.119C246.429 179.212 246.597 178.231 246.597 177.173C246.597 176.116 246.429 175.131 246.092 174.218C245.756 173.305 245.237 172.567 244.537 172.004C243.837 171.441 242.944 171.159 241.86 171.159C240.775 171.159 239.882 171.441 239.182 172.004C238.482 172.567 237.963 173.305 237.627 174.218C237.291 175.131 237.122 176.116 237.122 177.173C237.122 178.231 237.291 179.212 237.627 180.119C237.963 181.025 238.482 181.756 239.182 182.312C239.882 182.868 240.775 183.146 241.86 183.146ZM255.783 185L250.963 169.182H253.517L256.936 181.293H257.101L260.479 169.182H263.074L266.411 181.251H266.575L269.994 169.182H272.548L267.729 185H265.34L261.879 172.848H261.632L258.172 185H255.783ZM281.856 185.33C280.331 185.33 279.017 184.993 277.911 184.32C276.813 183.641 275.965 182.693 275.368 181.478C274.777 180.256 274.482 178.835 274.482 177.214C274.482 175.594 274.777 174.166 275.368 172.93C275.965 171.688 276.796 170.72 277.86 170.026C278.931 169.326 280.18 168.976 281.608 168.976C282.432 168.976 283.246 169.113 284.049 169.388C284.852 169.662 285.584 170.109 286.243 170.727C286.902 171.338 287.427 172.148 287.818 173.157C288.21 174.166 288.405 175.409 288.405 176.885V177.915H276.212V175.814H285.934C285.934 174.921 285.755 174.125 285.398 173.425C285.048 172.724 284.547 172.172 283.895 171.767C283.249 171.362 282.487 171.159 281.608 171.159C280.64 171.159 279.803 171.399 279.096 171.88C278.395 172.354 277.856 172.972 277.479 173.734C277.101 174.496 276.912 175.313 276.912 176.185V177.585C276.912 178.78 277.118 179.792 277.53 180.623C277.949 181.447 278.529 182.075 279.271 182.508C280.012 182.933 280.874 183.146 281.856 183.146C282.494 183.146 283.071 183.057 283.586 182.879C284.107 182.693 284.557 182.419 284.935 182.055C285.312 181.684 285.604 181.224 285.81 180.675L288.158 181.334C287.911 182.13 287.496 182.83 286.912 183.435C286.328 184.032 285.608 184.499 284.749 184.835C283.891 185.165 282.927 185.33 281.856 185.33ZM292.102 185V169.182H294.45V171.571H294.615C294.903 170.788 295.425 170.153 296.18 169.666C296.936 169.178 297.787 168.935 298.734 168.935C298.913 168.935 299.136 168.938 299.404 168.945C299.672 168.952 299.874 168.962 300.011 168.976V171.447C299.929 171.427 299.74 171.396 299.445 171.355C299.157 171.307 298.851 171.283 298.528 171.283C297.76 171.283 297.073 171.444 296.469 171.767C295.872 172.083 295.398 172.522 295.048 173.085C294.704 173.641 294.533 174.276 294.533 174.99V185H292.102ZM302.892 185V169.182H305.323V185H302.892ZM304.128 166.545C303.654 166.545 303.246 166.384 302.903 166.061C302.566 165.739 302.398 165.351 302.398 164.898C302.398 164.445 302.566 164.057 302.903 163.734C303.246 163.411 303.654 163.25 304.128 163.25C304.602 163.25 305.007 163.411 305.343 163.734C305.687 164.057 305.858 164.445 305.858 164.898C305.858 165.351 305.687 165.739 305.343 166.061C305.007 166.384 304.602 166.545 304.128 166.545ZM312.205 175.484V185H309.774V169.182H312.122V171.653H312.328C312.699 170.85 313.262 170.205 314.017 169.717C314.772 169.223 315.747 168.976 316.942 168.976C318.013 168.976 318.95 169.196 319.753 169.635C320.557 170.067 321.181 170.727 321.628 171.612C322.074 172.491 322.297 173.603 322.297 174.949V185H319.867V175.114C319.867 173.871 319.544 172.903 318.899 172.21C318.253 171.509 317.368 171.159 316.242 171.159C315.466 171.159 314.772 171.327 314.161 171.664C313.557 172 313.08 172.491 312.73 173.136C312.38 173.782 312.205 174.564 312.205 175.484ZM333.123 191.261C331.949 191.261 330.94 191.11 330.095 190.808C329.251 190.513 328.547 190.122 327.984 189.634C327.428 189.154 326.985 188.639 326.656 188.089L328.592 186.73C328.811 187.018 329.09 187.348 329.426 187.719C329.762 188.096 330.222 188.422 330.806 188.697C331.396 188.979 332.169 189.119 333.123 189.119C334.4 189.119 335.454 188.81 336.285 188.192C337.115 187.575 337.531 186.607 337.531 185.288V182.075H337.325C337.146 182.364 336.892 182.721 336.563 183.146C336.24 183.565 335.773 183.939 335.162 184.269C334.558 184.592 333.741 184.753 332.711 184.753C331.434 184.753 330.288 184.451 329.271 183.847C328.262 183.242 327.462 182.364 326.872 181.21C326.288 180.057 325.997 178.656 325.997 177.009C325.997 175.388 326.282 173.977 326.851 172.776C327.421 171.568 328.214 170.634 329.23 169.975C330.246 169.309 331.42 168.976 332.752 168.976C333.782 168.976 334.599 169.147 335.203 169.491C335.814 169.827 336.281 170.212 336.604 170.644C336.933 171.07 337.187 171.42 337.366 171.695H337.613V169.182H339.961V185.453C339.961 186.812 339.652 187.918 339.034 188.769C338.423 189.627 337.599 190.256 336.563 190.654C335.533 191.059 334.386 191.261 333.123 191.261ZM333.041 182.57C334.016 182.57 334.839 182.346 335.512 181.9C336.185 181.454 336.697 180.812 337.047 179.974C337.397 179.137 337.572 178.134 337.572 176.967C337.572 175.828 337.4 174.822 337.057 173.95C336.714 173.078 336.206 172.395 335.533 171.901C334.86 171.406 334.029 171.159 333.041 171.159C332.011 171.159 331.153 171.42 330.466 171.942C329.786 172.464 329.275 173.164 328.932 174.043C328.595 174.921 328.427 175.896 328.427 176.967C328.427 178.066 328.599 179.037 328.942 179.882C329.292 180.719 329.807 181.378 330.487 181.859C331.173 182.333 332.025 182.57 333.041 182.57ZM359.404 185H352.896V163.909H359.693C361.739 163.909 363.489 164.331 364.945 165.176C366.4 166.013 367.516 167.218 368.292 168.79C369.068 170.356 369.455 172.23 369.455 174.413C369.455 176.61 369.064 178.502 368.281 180.088C367.499 181.667 366.359 182.882 364.862 183.733C363.366 184.578 361.546 185 359.404 185ZM355.45 182.734H359.24C360.983 182.734 362.429 182.398 363.575 181.725C364.722 181.052 365.576 180.095 366.139 178.852C366.702 177.609 366.984 176.13 366.984 174.413C366.984 172.711 366.706 171.245 366.15 170.016C365.594 168.78 364.763 167.833 363.657 167.174C362.552 166.508 361.176 166.175 359.528 166.175H355.45V182.734ZM380.042 185.33C378.518 185.33 377.203 184.993 376.098 184.32C374.999 183.641 374.151 182.693 373.554 181.478C372.964 180.256 372.669 178.835 372.669 177.214C372.669 175.594 372.964 174.166 373.554 172.93C374.151 171.688 374.982 170.72 376.046 170.026C377.117 169.326 378.367 168.976 379.795 168.976C380.619 168.976 381.432 169.113 382.236 169.388C383.039 169.662 383.77 170.109 384.429 170.727C385.088 171.338 385.613 172.148 386.005 173.157C386.396 174.166 386.592 175.409 386.592 176.885V177.915H374.399V175.814H384.12C384.12 174.921 383.942 174.125 383.585 173.425C383.235 172.724 382.733 172.172 382.081 171.767C381.436 171.362 380.674 171.159 379.795 171.159C378.827 171.159 377.989 171.399 377.282 171.88C376.582 172.354 376.043 172.972 375.665 173.734C375.288 174.496 375.099 175.313 375.099 176.185V177.585C375.099 178.78 375.305 179.792 375.717 180.623C376.136 181.447 376.716 182.075 377.457 182.508C378.199 182.933 379.06 183.146 380.042 183.146C380.681 183.146 381.257 183.057 381.772 182.879C382.294 182.693 382.744 182.419 383.121 182.055C383.499 181.684 383.791 181.224 383.997 180.675L386.345 181.334C386.097 182.13 385.682 182.83 385.099 183.435C384.515 184.032 383.794 184.499 382.936 184.835C382.078 185.165 381.113 185.33 380.042 185.33ZM396.715 185.33C395.232 185.33 393.955 184.979 392.884 184.279C391.813 183.579 390.989 182.614 390.412 181.385C389.836 180.156 389.547 178.752 389.547 177.173C389.547 175.567 389.843 174.149 390.433 172.92C391.03 171.684 391.861 170.72 392.925 170.026C393.996 169.326 395.246 168.976 396.674 168.976C397.786 168.976 398.788 169.182 399.681 169.594C400.573 170.006 401.305 170.582 401.874 171.324C402.444 172.065 402.798 172.93 402.935 173.919H400.505C400.319 173.198 399.907 172.56 399.269 172.004C398.637 171.441 397.786 171.159 396.715 171.159C395.768 171.159 394.937 171.406 394.223 171.901C393.516 172.388 392.963 173.078 392.565 173.971C392.173 174.856 391.978 175.896 391.978 177.091C391.978 178.313 392.17 179.377 392.555 180.283C392.946 181.19 393.495 181.893 394.202 182.395C394.916 182.896 395.754 183.146 396.715 183.146C397.347 183.146 397.92 183.036 398.435 182.817C398.95 182.597 399.386 182.281 399.743 181.869C400.1 181.457 400.354 180.963 400.505 180.386H402.935C402.798 181.32 402.458 182.161 401.916 182.909C401.38 183.651 400.67 184.241 399.784 184.681C398.905 185.113 397.882 185.33 396.715 185.33ZM406.488 185V169.182H408.919V185H406.488ZM407.724 166.545C407.25 166.545 406.842 166.384 406.498 166.061C406.162 165.739 405.994 165.351 405.994 164.898C405.994 164.445 406.162 164.057 406.498 163.734C406.842 163.411 407.25 163.25 407.724 163.25C408.198 163.25 408.603 163.411 408.939 163.734C409.282 164.057 409.454 164.445 409.454 164.898C409.454 165.351 409.282 165.739 408.939 166.061C408.603 166.384 408.198 166.545 407.724 166.545ZM424.574 172.724L422.391 173.342C422.254 172.978 422.051 172.625 421.784 172.282C421.523 171.931 421.166 171.643 420.713 171.417C420.259 171.19 419.679 171.077 418.972 171.077C418.004 171.077 417.197 171.3 416.552 171.746C415.914 172.185 415.594 172.745 415.594 173.425C415.594 174.029 415.814 174.506 416.253 174.856C416.693 175.206 417.379 175.498 418.313 175.732L420.661 176.308C422.075 176.652 423.129 177.177 423.823 177.884C424.516 178.584 424.863 179.487 424.863 180.592C424.863 181.499 424.602 182.309 424.08 183.023C423.565 183.737 422.844 184.3 421.918 184.712C420.991 185.124 419.913 185.33 418.684 185.33C417.07 185.33 415.735 184.979 414.678 184.279C413.621 183.579 412.951 182.556 412.67 181.21L414.976 180.634C415.196 181.485 415.612 182.123 416.223 182.549C416.84 182.975 417.647 183.188 418.643 183.188C419.775 183.188 420.675 182.947 421.341 182.467C422.014 181.979 422.35 181.396 422.35 180.716C422.35 180.167 422.158 179.707 421.773 179.336C421.389 178.958 420.798 178.677 420.002 178.491L417.366 177.874C415.917 177.53 414.853 176.998 414.173 176.277C413.5 175.55 413.164 174.64 413.164 173.548C413.164 172.656 413.415 171.866 413.916 171.18C414.424 170.493 415.114 169.954 415.986 169.563C416.864 169.172 417.86 168.976 418.972 168.976C420.538 168.976 421.766 169.319 422.659 170.006C423.558 170.692 424.197 171.598 424.574 172.724ZM428.521 185V169.182H430.952V185H428.521ZM429.757 166.545C429.283 166.545 428.875 166.384 428.532 166.061C428.195 165.739 428.027 165.351 428.027 164.898C428.027 164.445 428.195 164.057 428.532 163.734C428.875 163.411 429.283 163.25 429.757 163.25C430.231 163.25 430.636 163.411 430.972 163.734C431.316 164.057 431.487 164.445 431.487 164.898C431.487 165.351 431.316 165.739 430.972 166.061C430.636 166.384 430.231 166.545 429.757 166.545ZM441.829 185.33C440.401 185.33 439.148 184.99 438.07 184.31C436.999 183.63 436.162 182.679 435.558 181.457C434.96 180.235 434.662 178.807 434.662 177.173C434.662 175.526 434.96 174.087 435.558 172.858C436.162 171.629 436.999 170.675 438.07 169.995C439.148 169.316 440.401 168.976 441.829 168.976C443.257 168.976 444.507 169.316 445.578 169.995C446.656 170.675 447.493 171.629 448.091 172.858C448.695 174.087 448.997 175.526 448.997 177.173C448.997 178.807 448.695 180.235 448.091 181.457C447.493 182.679 446.656 183.63 445.578 184.31C444.507 184.99 443.257 185.33 441.829 185.33ZM441.829 183.146C442.914 183.146 443.807 182.868 444.507 182.312C445.207 181.756 445.725 181.025 446.062 180.119C446.398 179.212 446.566 178.231 446.566 177.173C446.566 176.116 446.398 175.131 446.062 174.218C445.725 173.305 445.207 172.567 444.507 172.004C443.807 171.441 442.914 171.159 441.829 171.159C440.745 171.159 439.852 171.441 439.152 172.004C438.451 172.567 437.933 173.305 437.597 174.218C437.26 175.131 437.092 176.116 437.092 177.173C437.092 178.231 437.26 179.212 437.597 180.119C437.933 181.025 438.451 181.756 439.152 182.312C439.852 182.868 440.745 183.146 441.829 183.146ZM455.137 175.484V185H452.707V169.182H455.055V171.653H455.261C455.632 170.85 456.195 170.205 456.95 169.717C457.705 169.223 458.68 168.976 459.874 168.976C460.945 168.976 461.883 169.196 462.686 169.635C463.489 170.067 464.114 170.727 464.56 171.612C465.006 172.491 465.23 173.603 465.23 174.949V185H462.799V175.114C462.799 173.871 462.477 172.903 461.831 172.21C461.186 171.509 460.3 171.159 459.174 171.159C458.398 171.159 457.705 171.327 457.094 171.664C456.49 172 456.013 172.491 455.662 173.136C455.312 173.782 455.137 174.564 455.137 175.484ZM480.875 172.724L478.692 173.342C478.555 172.978 478.352 172.625 478.084 172.282C477.824 171.931 477.467 171.643 477.013 171.417C476.56 171.19 475.98 171.077 475.273 171.077C474.305 171.077 473.498 171.3 472.853 171.746C472.214 172.185 471.895 172.745 471.895 173.425C471.895 174.029 472.115 174.506 472.554 174.856C472.994 175.206 473.68 175.498 474.614 175.732L476.962 176.308C478.376 176.652 479.43 177.177 480.123 177.884C480.817 178.584 481.164 179.487 481.164 180.592C481.164 181.499 480.903 182.309 480.381 183.023C479.866 183.737 479.145 184.3 478.218 184.712C477.291 185.124 476.214 185.33 474.985 185.33C473.371 185.33 472.036 184.979 470.979 184.279C469.921 183.579 469.252 182.556 468.97 181.21L471.277 180.634C471.497 181.485 471.912 182.123 472.523 182.549C473.141 182.975 473.948 183.188 474.943 183.188C476.076 183.188 476.976 182.947 477.642 182.467C478.314 181.979 478.651 181.396 478.651 180.716C478.651 180.167 478.459 179.707 478.074 179.336C477.69 178.958 477.099 178.677 476.303 178.491L473.666 177.874C472.218 177.53 471.154 176.998 470.474 176.277C469.801 175.55 469.465 174.64 469.465 173.548C469.465 172.656 469.715 171.866 470.217 171.18C470.725 170.493 471.415 169.954 472.286 169.563C473.165 169.172 474.161 168.976 475.273 168.976C476.838 168.976 478.067 169.319 478.96 170.006C479.859 170.692 480.498 171.598 480.875 172.724ZM492.154 166.175V163.909H507.973V166.175H501.341V185H498.787V166.175H492.154ZM514.015 175.484V185H511.585V163.909H514.015V171.653H514.221C514.592 170.836 515.148 170.188 515.889 169.707C516.638 169.22 517.633 168.976 518.876 168.976C519.954 168.976 520.898 169.192 521.708 169.625C522.518 170.05 523.146 170.706 523.593 171.592C524.046 172.47 524.272 173.589 524.272 174.949V185H521.842V175.114C521.842 173.857 521.516 172.886 520.864 172.199C520.218 171.506 519.322 171.159 518.176 171.159C517.379 171.159 516.665 171.327 516.034 171.664C515.409 172 514.915 172.491 514.551 173.136C514.194 173.782 514.015 174.564 514.015 175.484ZM528.719 185V169.182H531.067V171.571H531.231C531.52 170.788 532.041 170.153 532.797 169.666C533.552 169.178 534.403 168.935 535.351 168.935C535.529 168.935 535.752 168.938 536.02 168.945C536.288 168.952 536.49 168.962 536.628 168.976V171.447C536.545 171.427 536.356 171.396 536.061 171.355C535.773 171.307 535.467 171.283 535.145 171.283C534.376 171.283 533.689 171.444 533.085 171.767C532.488 172.083 532.014 172.522 531.664 173.085C531.321 173.641 531.149 174.276 531.149 174.99V185H528.719ZM545.453 185.33C544.025 185.33 542.772 184.99 541.694 184.31C540.623 183.63 539.786 182.679 539.182 181.457C538.584 180.235 538.286 178.807 538.286 177.173C538.286 175.526 538.584 174.087 539.182 172.858C539.786 171.629 540.623 170.675 541.694 169.995C542.772 169.316 544.025 168.976 545.453 168.976C546.881 168.976 548.131 169.316 549.202 169.995C550.28 170.675 551.117 171.629 551.715 172.858C552.319 174.087 552.621 175.526 552.621 177.173C552.621 178.807 552.319 180.235 551.715 181.457C551.117 182.679 550.28 183.63 549.202 184.31C548.131 184.99 546.881 185.33 545.453 185.33ZM545.453 183.146C546.538 183.146 547.431 182.868 548.131 182.312C548.831 181.756 549.349 181.025 549.686 180.119C550.022 179.212 550.191 178.231 550.191 177.173C550.191 176.116 550.022 175.131 549.686 174.218C549.349 173.305 548.831 172.567 548.131 172.004C547.431 171.441 546.538 171.159 545.453 171.159C544.369 171.159 543.476 171.441 542.776 172.004C542.075 172.567 541.557 173.305 541.221 174.218C540.884 175.131 540.716 176.116 540.716 177.173C540.716 178.231 540.884 179.212 541.221 180.119C541.557 181.025 542.075 181.756 542.776 182.312C543.476 182.868 544.369 183.146 545.453 183.146ZM566.3 178.533V169.182H568.73V185H566.3V182.322H566.135C565.764 183.126 565.187 183.809 564.405 184.372C563.622 184.928 562.633 185.206 561.439 185.206C560.45 185.206 559.571 184.99 558.802 184.557C558.034 184.118 557.429 183.459 556.99 182.58C556.551 181.694 556.331 180.579 556.331 179.233V169.182H558.761V179.068C558.761 180.222 559.084 181.142 559.729 181.828C560.382 182.515 561.212 182.858 562.222 182.858C562.826 182.858 563.44 182.703 564.065 182.395C564.697 182.086 565.225 181.612 565.651 180.973C566.083 180.335 566.3 179.521 566.3 178.533ZM579.566 191.261C578.392 191.261 577.383 191.11 576.539 190.808C575.694 190.513 574.991 190.122 574.428 189.634C573.871 189.154 573.429 188.639 573.099 188.089L575.035 186.73C575.255 187.018 575.533 187.348 575.869 187.719C576.206 188.096 576.666 188.422 577.249 188.697C577.84 188.979 578.612 189.119 579.566 189.119C580.843 189.119 581.897 188.81 582.728 188.192C583.559 187.575 583.974 186.607 583.974 185.288V182.075H583.768C583.59 182.364 583.336 182.721 583.006 183.146C582.683 183.565 582.217 183.939 581.605 184.269C581.001 184.592 580.184 184.753 579.154 184.753C577.877 184.753 576.731 184.451 575.715 183.847C574.706 183.242 573.906 182.364 573.315 181.21C572.732 180.057 572.44 178.656 572.44 177.009C572.44 175.388 572.725 173.977 573.295 172.776C573.865 171.568 574.658 170.634 575.674 169.975C576.69 169.309 577.864 168.976 579.196 168.976C580.225 168.976 581.042 169.147 581.647 169.491C582.258 169.827 582.725 170.212 583.047 170.644C583.377 171.07 583.631 171.42 583.809 171.695H584.056V169.182H586.404V185.453C586.404 186.812 586.096 187.918 585.478 188.769C584.867 189.627 584.043 190.256 583.006 190.654C581.976 191.059 580.83 191.261 579.566 191.261ZM579.484 182.57C580.459 182.57 581.283 182.346 581.956 181.9C582.628 181.454 583.14 180.812 583.49 179.974C583.84 179.137 584.015 178.134 584.015 176.967C584.015 175.828 583.844 174.822 583.5 173.95C583.157 173.078 582.649 172.395 581.976 171.901C581.303 171.406 580.473 171.159 579.484 171.159C578.454 171.159 577.596 171.42 576.909 171.942C576.23 172.464 575.718 173.164 575.375 174.043C575.039 174.921 574.87 175.896 574.87 176.967C574.87 178.066 575.042 179.037 575.385 179.882C575.735 180.719 576.25 181.378 576.93 181.859C577.617 182.333 578.468 182.57 579.484 182.57ZM593.284 175.484V185H590.853V163.909H593.284V171.653H593.49C593.86 170.836 594.417 170.188 595.158 169.707C595.906 169.22 596.902 168.976 598.145 168.976C599.222 168.976 600.166 169.192 600.977 169.625C601.787 170.05 602.415 170.706 602.861 171.592C603.314 172.47 603.541 173.589 603.541 174.949V185H601.11V175.114C601.11 173.857 600.784 172.886 600.132 172.199C599.487 171.506 598.591 171.159 597.444 171.159C596.648 171.159 595.934 171.327 595.302 171.664C594.677 172 594.183 172.491 593.819 173.136C593.462 173.782 593.284 174.564 593.284 175.484ZM622.981 185H616.473V163.909H623.27C625.316 163.909 627.066 164.331 628.522 165.176C629.977 166.013 631.093 167.218 631.869 168.79C632.645 170.356 633.033 172.23 633.033 174.413C633.033 176.61 632.641 178.502 631.859 180.088C631.076 181.667 629.936 182.882 628.44 183.733C626.943 184.578 625.123 185 622.981 185ZM619.027 182.734H622.817C624.561 182.734 626.006 182.398 627.152 181.725C628.299 181.052 629.154 180.095 629.717 178.852C630.28 177.609 630.561 176.13 630.561 174.413C630.561 172.711 630.283 171.245 629.727 170.016C629.171 168.78 628.34 167.833 627.235 167.174C626.129 166.508 624.753 166.175 623.105 166.175H619.027V182.734ZM641.642 185.371C640.64 185.371 639.73 185.182 638.913 184.804C638.096 184.42 637.447 183.867 636.967 183.146C636.486 182.419 636.246 181.54 636.246 180.51C636.246 179.604 636.424 178.869 636.781 178.306C637.138 177.736 637.615 177.29 638.213 176.967C638.81 176.645 639.469 176.404 640.19 176.246C640.918 176.082 641.649 175.951 642.383 175.855C643.345 175.732 644.124 175.639 644.721 175.577C645.325 175.508 645.765 175.395 646.039 175.237C646.321 175.079 646.462 174.805 646.462 174.413V174.331C646.462 173.315 646.184 172.525 645.627 171.962C645.078 171.399 644.244 171.118 643.125 171.118C641.965 171.118 641.055 171.372 640.396 171.88C639.737 172.388 639.273 172.93 639.006 173.507L636.699 172.683C637.111 171.722 637.66 170.974 638.347 170.438C639.04 169.896 639.795 169.518 640.612 169.305C641.436 169.086 642.246 168.976 643.043 168.976C643.551 168.976 644.134 169.038 644.793 169.161C645.459 169.278 646.101 169.522 646.719 169.892C647.344 170.263 647.862 170.823 648.274 171.571C648.686 172.319 648.892 173.322 648.892 174.578V185H646.462V182.858H646.338C646.173 183.201 645.899 183.569 645.514 183.96C645.13 184.351 644.618 184.684 643.98 184.959C643.341 185.233 642.562 185.371 641.642 185.371ZM642.013 183.188C642.974 183.188 643.784 182.999 644.443 182.621C645.109 182.243 645.61 181.756 645.947 181.159C646.29 180.561 646.462 179.933 646.462 179.274V177.05C646.359 177.173 646.132 177.287 645.782 177.39C645.439 177.486 645.04 177.571 644.587 177.647C644.141 177.716 643.705 177.777 643.279 177.832C642.861 177.88 642.521 177.922 642.26 177.956C641.628 178.038 641.038 178.172 640.489 178.358C639.946 178.536 639.507 178.807 639.17 179.171C638.841 179.528 638.676 180.016 638.676 180.634C638.676 181.478 638.988 182.116 639.613 182.549C640.245 182.975 641.045 183.188 642.013 183.188ZM660.207 169.182V171.241H652.01V169.182H660.207ZM654.399 165.392H656.829V180.469C656.829 181.155 656.929 181.67 657.128 182.013C657.334 182.35 657.595 182.576 657.911 182.693C658.233 182.803 658.573 182.858 658.93 182.858C659.198 182.858 659.418 182.844 659.589 182.817C659.761 182.782 659.898 182.755 660.001 182.734L660.496 184.918C660.331 184.979 660.101 185.041 659.806 185.103C659.51 185.172 659.136 185.206 658.683 185.206C657.997 185.206 657.324 185.058 656.665 184.763C656.012 184.468 655.47 184.018 655.037 183.414C654.612 182.81 654.399 182.048 654.399 181.128V165.392ZM668.518 185.371C667.516 185.371 666.606 185.182 665.789 184.804C664.972 184.42 664.323 183.867 663.843 183.146C663.362 182.419 663.122 181.54 663.122 180.51C663.122 179.604 663.3 178.869 663.657 178.306C664.014 177.736 664.491 177.29 665.089 176.967C665.686 176.645 666.345 176.404 667.066 176.246C667.794 176.082 668.525 175.951 669.259 175.855C670.221 175.732 671 175.639 671.597 175.577C672.201 175.508 672.641 175.395 672.915 175.237C673.197 175.079 673.338 174.805 673.338 174.413V174.331C673.338 173.315 673.059 172.525 672.503 171.962C671.954 171.399 671.12 171.118 670.001 171.118C668.841 171.118 667.931 171.372 667.272 171.88C666.613 172.388 666.149 172.93 665.882 173.507L663.575 172.683C663.987 171.722 664.536 170.974 665.222 170.438C665.916 169.896 666.671 169.518 667.488 169.305C668.312 169.086 669.122 168.976 669.919 168.976C670.427 168.976 671.01 169.038 671.669 169.161C672.335 169.278 672.977 169.522 673.595 169.892C674.22 170.263 674.738 170.823 675.15 171.571C675.562 172.319 675.768 173.322 675.768 174.578V185H673.338V182.858H673.214C673.049 183.201 672.775 183.569 672.39 183.96C672.006 184.351 671.494 184.684 670.856 184.959C670.217 185.233 669.438 185.371 668.518 185.371ZM668.889 183.188C669.85 183.188 670.66 182.999 671.319 182.621C671.985 182.243 672.486 181.756 672.823 181.159C673.166 180.561 673.338 179.933 673.338 179.274V177.05C673.235 177.173 673.008 177.287 672.658 177.39C672.315 177.486 671.916 177.571 671.463 177.647C671.017 177.716 670.581 177.777 670.155 177.832C669.737 177.88 669.397 177.922 669.136 177.956C668.504 178.038 667.914 178.172 667.365 178.358C666.822 178.536 666.383 178.807 666.046 179.171C665.717 179.528 665.552 180.016 665.552 180.634C665.552 181.478 665.864 182.116 666.489 182.549C667.121 182.975 667.921 183.188 668.889 183.188ZM681.975 185.165C681.467 185.165 681.031 184.983 680.667 184.619C680.303 184.255 680.122 183.819 680.122 183.311C680.122 182.803 680.303 182.367 680.667 182.003C681.031 181.639 681.467 181.457 681.975 181.457C682.483 181.457 682.919 181.639 683.283 182.003C683.647 182.367 683.829 182.803 683.829 183.311C683.829 183.647 683.743 183.956 683.571 184.238C683.407 184.519 683.184 184.746 682.902 184.918C682.627 185.082 682.319 185.165 681.975 185.165Z" fill="white"/>
<defs>
<linearGradient id="paint0_linear_52_11" x1="173" y1="85" x2="709" y2="85" gradientUnits="userSpaceOnUse">
<stop offset="0.129808" stop-color="#267DC9"/>
<stop offset="0.447115" stop-color="#3D1A73"/>
</linearGradient>
</defs>
</svg>
